<?xml version="1.0" encoding="UTF-8" standalone="no" ?>
<!DOCTYPE svg PUBLIC "-//W3C//DTD SVG 1.1//EN" "http://www.w3.org/Graphics/SVG/1.1/DTD/svg11.dtd">
<svg xmlns="http://www.w3.org/2000/svg" xmlns:xlink="http://www.w3.org/1999/xlink" version="1.1" width="500" height="500" viewBox="0 0 500 500" xml:space="preserve">
<desc>Created with Fabric.js 4.6.0</desc>
<defs>
</defs>
<g transform="matrix(1 0 0 1 250.46 184.74)" id="rgvYo-ChNMUwPI3YSS7i3"  >
<path style="stroke: rgb(0,0,0); stroke-width: 1; stroke-dasharray: none; stroke-linecap: butt; stroke-dashoffset: 0; stroke-linejoin: miter; stroke-miterlimit: 4; fill: rgb(255,255,255); fill-opacity: 0; fill-rule: nonzero; opacity: 1;" vector-effect="non-scaling-stroke"  transform=" translate(0, 0)" d="M 0 0" stroke-linecap="round" />
</g>
<g transform="matrix(1 0 0 1 221.83 255.97)" id="7mX4uqL1z_rEzPCJstven"  >
<path style="stroke: rgb(0,0,0); stroke-width: 1; stroke-dasharray: none; stroke-linecap: butt; stroke-dashoffset: 0; stroke-linejoin: miter; stroke-miterlimit: 4; fill: rgb(255,255,255); fill-opacity: 0; fill-rule: nonzero; opacity: 1;" vector-effect="non-scaling-stroke"  transform=" translate(0, 0)" d="M 0 0" stroke-linecap="round" />
</g>
<g transform="matrix(1 0 0 0.9 280 205)" id="6PA3DkGsRmdReKe-HiSPp"  >
<path style="stroke: rgb(0,0,0); stroke-width: 0; stroke-dasharray: none; stroke-linecap: butt; stroke-dashoffset: 0; stroke-linejoin: miter; stroke-miterlimit: 4; fill: rgb(0,0,0); fill-rule: nonzero; opacity: 1;" vector-effect="non-scaling-stroke"  transform=" translate(0, 0)" d="M -20 -50 L 0 -5.55556 L 7.9599 16.55527 L 20 49.99999 L 20 -10.000010000000003" stroke-linecap="round" />
</g>
<g transform="matrix(-1 0 0 0.9 200 205)" id="ZfQLqLs6exl_5qIJe1dcv"  >
<path style="stroke: rgb(0,0,0); stroke-width: 0; stroke-dasharray: none; stroke-linecap: butt; stroke-dashoffset: 0; stroke-linejoin: miter; stroke-miterlimit: 4; fill: rgb(0,0,0); fill-rule: nonzero; opacity: 1;" vector-effect="non-scaling-stroke"  transform=" translate(0, 0)" d="M -20 -50 L 0 -5.55556 L 20 50 L 20 -10" stroke-linecap="round" />
</g>
<g transform="matrix(0.22 0 0 0.38 240 180)" id="SQIsebKLPkQDKGrf5crF9"  >
<path style="stroke: none; stroke-width: 0; stroke-dasharray: none; stroke-linecap: butt; stroke-dashoffset: 0; stroke-linejoin: miter; stroke-miterlimit: 4; fill: rgb(0,0,0); fill-rule: nonzero; opacity: 1;" vector-effect="non-scaling-stroke"  transform=" translate(0, 0)" d="M 20 -33.28947 L 40 6.7105299999999986 L 1.2681400000000025 73.28948 L -40 6.7105299999999914 L -20 -33.28947000000001 L 0 -73.28947000000001 z" stroke-linecap="round" />
</g>
<g transform="matrix(1 0 0 1 0 0)" id="hkKWX-ljK8rhvD8ntqzEE"  >
<path style="stroke: rgb(0,0,0); stroke-width: 1; stroke-dasharray: none; stroke-linecap: butt; stroke-dashoffset: 0; stroke-linejoin: miter; stroke-miterlimit: 4; fill: rgb(255,255,255); fill-opacity: 0; fill-rule: nonzero; opacity: 1;" vector-effect="non-scaling-stroke"  transform=" translate(0, 0)" d="" stroke-linecap="round" />
</g>
<g transform="matrix(0.35 0 0 1.28 240 224.79)" id="SbCLhhd9U6MAWTeNCAHs6"  >
<path style="stroke: rgb(167,25,37); stroke-width: 0; stroke-dasharray: none; stroke-linecap: butt; stroke-dashoffset: 0; stroke-linejoin: miter; stroke-miterlimit: 4; fill: rgb(0,0,0); fill-rule: nonzero; opacity: 1;" vector-effect="non-scaling-stroke"  transform=" translate(0, 0)" d="M -19.3769 -19.3769 L 19.3769 -19.3769 L 19.3769 19.3769 L -19.3769 19.3769 z" stroke-linecap="round" />
</g>
<g transform="matrix(0.25 0 0 0.25 262.96 182.34)" id="TMpLLECVy49_cnvDKsuRo"  >
<path style="stroke: none; stroke-width: 0; stroke-dasharray: none; stroke-linecap: butt; stroke-dashoffset: 0; stroke-linejoin: miter; stroke-miterlimit: 4; fill: rgb(0,0,0); fill-rule: nonzero; opacity: 1;" vector-effect="non-scaling-stroke"  transform=" translate(0, 0)" d="M -82.10217 86.65996 L -65.25004 87.72711 L -11.635509999999996 -9.202960000000004 L 68.76157 38.702189999999995 L 82.10218 25.233179999999994 L -11.635509999999996 -87.72710000000001 z" stroke-linecap="round" />
</g>
<g transform="matrix(-0.25 0 0 0.25 217.34 181.93)" id="-lG-KaAXOuDXxCvUHxoTv"  >
<path style="stroke: rgb(255,255,255); stroke-opacity: 0; stroke-width: 0; stroke-dasharray: none; stroke-linecap: butt; stroke-dashoffset: 0; stroke-linejoin: miter; stroke-miterlimit: 4; fill: rgb(0,0,0); fill-rule: nonzero; opacity: 1;" vector-effect="non-scaling-stroke"  transform=" translate(0, 0)" d="M -82.10217 86.65139 L -65.25004 87.71854 L -10.629010000000001 -7.71853999999999 L 68.76157 38.69362000000001 L 82.10218 25.22461000000001 L -10.629009999999994 -87.71852999999999 z" stroke-linecap="round" />
</g>
<g transform="matrix(0.45 0.89 -0.89 0.45 239.49 284.07)" id="EimY85Scs1u3dKciHWoVd"  >
<path style="stroke: rgb(0,0,0); stroke-width: 5; stroke-dasharray: none; stroke-linecap: butt; stroke-dashoffset: 0; stroke-linejoin: miter; stroke-miterlimit: 4; fill: rgb(255,255,255); fill-opacity: 0; fill-rule: nonzero; opacity: 1;" vector-effect="non-scaling-stroke"  transform=" translate(0, 0)" d="M -33.79677 -15.79623 C -33.79677 -15.79623 16.807769999999998 -36.82949 -19.663630000000005 -8.59503 C -56.13503000000001 19.639429999999997 29.771429999999995 -33.91155 -1.843500000000006 0.48478000000000065 C -33.45843000000001 34.88111 27.071779999999993 20.82948 33.79675999999999 18.6444" stroke-linecap="round" />
</g>
</svg>